STARTFONT 2.1
COMMENT
COMMENT Converted from OpenType font "Q:\font stuff\winfont\Mai Tai.ttf" by "otf2bdf 3.0".
COMMENT
FONT -FreeType-Mai Tai-Medium-R-Normal--36-360-72-72-P-77-ISO10646-1
SIZE 36 72 72
FONTBOUNDINGBOX 14 34 0 -7
STARTPROPERTIES 19
FOUNDRY "FreeType"
FAMILY_NAME "Mai Tai"
WEIGHT_NAME "Medium"
SLANT "R"
SETWIDTH_NAME "Normal"
ADD_STYLE_NAME ""
PIXEL_SIZE 26
POINT_SIZE 360
RESOLUTION_X 72
RESOLUTION_Y 72
SPACING "P"
AVERAGE_WIDTH 77
CHARSET_REGISTRY "ISO10646"
CHARSET_ENCODING "1"
FONT_ASCENT 28
FONT_DESCENT 7
COPYRIGHT "(c) 1998 Ray Larabie - rlarabie@hotmail.com"
_OTF_FONTFILE "Q:\font stuff\winfont\Mai Tai.ttf"
_OTF_PSNAME "MaiTai"
ENDPROPERTIES
CHARS 101
STARTCHAR 0020
ENCODING 32
SWIDTH 166 0
DWIDTH 6 0
BBX 0 0 0 0
BITMAP
ENDCHAR
STARTCHAR 0021
ENCODING 33
SWIDTH 138 0
DWIDTH 5 0
BBX 3 26 1 0
BITMAP
60
E0
E0
E0
E0
E0
E0
E0
E0
E0
E0
E0
E0
E0
E0
E0
E0
E0
20
00
00
00
00
60
E0
60
ENDCHAR
STARTCHAR 0022
ENCODING 34
SWIDTH 277 0
DWIDTH 10 0
BBX 8 6 1 20
BITMAP
67
E7
E7
E7
E7
67
ENDCHAR
STARTCHAR 0023
ENCODING 35
SWIDTH 444 0
DWIDTH 16 0
BBX 11 19 2 4
BITMAP
1B80
3B80
3B80
3B80
3B80
FFE0
FFE0
7FE0
3B80
3B80
3B80
7FE0
FFE0
FFE0
3B80
3B80
3B80
3B80
1B80
ENDCHAR
STARTCHAR 0024
ENCODING 36
SWIDTH 277 0
DWIDTH 10 0
BBX 8 14 1 11
BITMAP
10
7F
FF
FF
F0
FF
FF
7F
17
17
FF
FF
7F
10
ENDCHAR
STARTCHAR 0025
ENCODING 37
SWIDTH 277 0
DWIDTH 10 0
BBX 8 12 1 13
BITMAP
67
E7
67
07
7F
FF
FF
E0
E0
E3
E7
63
ENDCHAR
STARTCHAR 0026
ENCODING 38
SWIDTH 277 0
DWIDTH 10 0
BBX 8 13 1 6
BITMAP
F8
F8
F8
E0
E0
FF
FF
FF
FC
FC
FC
FC
7C
ENDCHAR
STARTCHAR 0027
ENCODING 39
SWIDTH 166 0
DWIDTH 6 0
BBX 3 6 1 20
BITMAP
60
E0
E0
E0
E0
60
ENDCHAR
STARTCHAR 0028
ENCODING 40
SWIDTH 277 0
DWIDTH 10 0
BBX 8 26 1 0
BITMAP
7F
FF
FF
E0
E0
E0
E0
E0
E0
E0
E0
E0
E0
E0
E0
E0
E0
E0
E0
E0
E0
E0
E0
FF
FF
7F
ENDCHAR
STARTCHAR 0029
ENCODING 41
SWIDTH 277 0
DWIDTH 10 0
BBX 8 26 1 0
BITMAP
7F
FF
FF
07
07
07
07
07
07
07
07
07
07
07
07
07
07
07
07
07
07
07
07
FF
FF
7F
ENDCHAR
STARTCHAR 002A
ENCODING 42
SWIDTH 277 0
DWIDTH 10 0
BBX 7 9 2 15
BITMAP
20
30
36
FE
FE
38
6C
6C
28
ENDCHAR
STARTCHAR 002B
ENCODING 43
SWIDTH 277 0
DWIDTH 10 0
BBX 9 10 0 3
BITMAP
1C00
1C00
1E00
1C00
FF80
FF80
FF80
1C00
1C00
1C00
ENDCHAR
STARTCHAR 002C
ENCODING 44
SWIDTH 138 0
DWIDTH 5 0
BBX 3 7 1 -3
BITMAP
60
E0
E0
E0
E0
E0
60
ENDCHAR
STARTCHAR 002D
ENCODING 45
SWIDTH 277 0
DWIDTH 10 0
BBX 8 3 1 6
BITMAP
FF
FF
FF
ENDCHAR
STARTCHAR 002E
ENCODING 46
SWIDTH 138 0
DWIDTH 5 0
BBX 3 3 1 0
BITMAP
60
E0
60
ENDCHAR
STARTCHAR 002F
ENCODING 47
SWIDTH 277 0
DWIDTH 10 0
BBX 8 26 1 -1
BITMAP
03
07
07
07
0E
0E
0E
0E
0E
1C
1C
1C
1C
1C
38
38
38
38
38
70
70
70
70
70
E0
60
ENDCHAR
STARTCHAR 0030
ENCODING 48
SWIDTH 277 0
DWIDTH 10 0
BBX 8 19 1 0
BITMAP
7F
FF
FF
E7
E7
E7
E7
E7
E7
E7
E7
E7
E7
E7
E7
E7
FF
FF
7F
ENDCHAR
STARTCHAR 0031
ENCODING 49
SWIDTH 138 0
DWIDTH 5 0
BBX 3 19 1 0
BITMAP
60
E0
E0
E0
E0
E0
E0
E0
E0
E0
E0
E0
E0
E0
E0
E0
E0
E0
60
ENDCHAR
STARTCHAR 0032
ENCODING 50
SWIDTH 277 0
DWIDTH 10 0
BBX 8 19 1 0
BITMAP
7F
FF
FF
07
07
07
07
07
07
07
7F
FF
FF
E0
E0
E0
FF
FF
7F
ENDCHAR
STARTCHAR 0033
ENCODING 51
SWIDTH 277 0
DWIDTH 10 0
BBX 8 19 1 0
BITMAP
7F
FF
FF
07
07
07
07
07
07
07
FF
FF
FF
07
07
07
FF
FF
7F
ENDCHAR
STARTCHAR 0034
ENCODING 52
SWIDTH 277 0
DWIDTH 10 0
BBX 8 19 1 0
BITMAP
67
E7
E7
E7
E7
E7
E7
E7
E7
E7
FF
FF
FF
07
07
07
07
07
07
ENDCHAR
STARTCHAR 0035
ENCODING 53
SWIDTH 277 0
DWIDTH 10 0
BBX 8 19 1 0
BITMAP
7F
FF
FF
E0
E0
E0
E0
E0
E0
E0
FF
FF
7F
07
07
07
FF
FF
7F
ENDCHAR
STARTCHAR 0036
ENCODING 54
SWIDTH 277 0
DWIDTH 10 0
BBX 8 19 1 0
BITMAP
7F
FF
FF
E0
E0
E0
E0
E0
E0
E0
FF
FF
FF
E7
E7
E7
FF
FF
7F
ENDCHAR
STARTCHAR 0037
ENCODING 55
SWIDTH 277 0
DWIDTH 10 0
BBX 8 19 1 0
BITMAP
7F
FF
FF
07
07
07
07
07
07
07
07
07
07
07
07
07
07
07
07
ENDCHAR
STARTCHAR 0038
ENCODING 56
SWIDTH 277 0
DWIDTH 10 0
BBX 8 19 1 0
BITMAP
7F
FF
FF
E7
E7
E7
E7
E7
E7
E7
FF
3E
FF
E7
E7
E7
FF
FF
7F
ENDCHAR
STARTCHAR 0039
ENCODING 57
SWIDTH 277 0
DWIDTH 10 0
BBX 8 19 1 0
BITMAP
7F
FF
FF
E7
E7
E7
E7
E7
E7
E7
FF
FF
7F
07
07
07
FF
FF
7F
ENDCHAR
STARTCHAR 003A
ENCODING 58
SWIDTH 138 0
DWIDTH 5 0
BBX 3 10 1 0
BITMAP
60
E0
60
00
00
00
00
60
E0
60
ENDCHAR
STARTCHAR 003B
ENCODING 59
SWIDTH 138 0
DWIDTH 5 0
BBX 3 13 1 -3
BITMAP
60
E0
60
00
00
00
60
E0
E0
E0
E0
E0
60
ENDCHAR
STARTCHAR 003C
ENCODING 60
SWIDTH 138 0
DWIDTH 5 0
BBX 2 6 2 10
BITMAP
40
40
C0
C0
40
40
ENDCHAR
STARTCHAR 003D
ENCODING 61
SWIDTH 277 0
DWIDTH 10 0
BBX 8 8 1 5
BITMAP
FF
FF
FF
00
00
FF
FF
FF
ENDCHAR
STARTCHAR 003E
ENCODING 62
SWIDTH 305 0
DWIDTH 11 0
BBX 2 4 2 11
BITMAP
80
C0
C0
80
ENDCHAR
STARTCHAR 003F
ENCODING 63
SWIDTH 277 0
DWIDTH 10 0
BBX 9 26 0 0
BITMAP
7F80
FF80
FF80
0380
0380
0380
0380
0380
0380
0380
0380
0380
0380
0380
0380
0380
0380
0F80
0F80
0F80
0000
0000
0000
0C00
1C00
0C00
ENDCHAR
STARTCHAR 0040
ENCODING 64
SWIDTH 444 0
DWIDTH 16 0
BBX 13 20 1 3
BITMAP
7FF8
FFF8
FFF8
E038
E038
EFB8
EFB8
EFB8
E1B8
EFB8
EFB8
EDB8
EFF8
EFF8
EFF8
E000
E000
FFF8
FFF8
7FF8
ENDCHAR
STARTCHAR 0041
ENCODING 65
SWIDTH 277 0
DWIDTH 10 0
BBX 8 26 1 0
BITMAP
7F
FF
FF
E7
E7
E7
E7
E7
E7
E7
E7
E7
E7
E7
E7
E7
E7
FF
FF
FF
E7
E7
E7
E7
E7
67
ENDCHAR
STARTCHAR 0042
ENCODING 66
SWIDTH 277 0
DWIDTH 10 0
BBX 8 26 1 0
BITMAP
7F
FF
FF
E7
E7
E7
E7
E7
E7
E7
E7
E7
E7
E7
E7
E7
E7
FF
FE
FF
E7
E7
E7
FF
FF
7F
ENDCHAR
STARTCHAR 0043
ENCODING 67
SWIDTH 277 0
DWIDTH 10 0
BBX 8 26 1 0
BITMAP
7F
FF
FF
E0
E0
E0
E0
E0
E0
E0
E0
E0
E0
E0
E0
E0
E0
E0
E0
E0
E0
E0
E0
FF
FF
7F
ENDCHAR
STARTCHAR 0044
ENCODING 68
SWIDTH 277 0
DWIDTH 10 0
BBX 8 26 1 0
BITMAP
FF
FF
FF
E7
E7
E7
E7
E7
E7
E7
E7
E7
E7
E7
E7
E7
E7
E7
E7
E7
E7
E7
E7
FF
FF
FF
ENDCHAR
STARTCHAR 0045
ENCODING 69
SWIDTH 277 0
DWIDTH 10 0
BBX 8 26 1 0
BITMAP
7F
FF
FF
E0
E0
E0
E0
E0
E0
E0
E0
E0
E0
E0
E0
E0
E0
FF
FF
FF
E0
E0
E0
FF
FF
7F
ENDCHAR
STARTCHAR 0046
ENCODING 70
SWIDTH 277 0
DWIDTH 10 0
BBX 8 26 1 0
BITMAP
7F
FF
FF
E0
E0
E0
E0
E0
E0
E0
E0
E0
E0
E0
E0
E0
E0
FF
FF
FF
E0
E0
E0
E0
E0
60
ENDCHAR
STARTCHAR 0047
ENCODING 71
SWIDTH 277 0
DWIDTH 10 0
BBX 8 26 1 0
BITMAP
7F
FF
FF
E0
E0
E0
E0
E0
E0
E0
E0
E0
E0
E0
E0
E0
E0
E0
E0
E7
E7
E7
E7
FF
FF
7F
ENDCHAR
STARTCHAR 0048
ENCODING 72
SWIDTH 277 0
DWIDTH 10 0
BBX 8 26 1 0
BITMAP
67
E7
E7
E7
E7
E7
E7
E7
E7
E7
E7
E7
E7
E7
E7
E7
E7
FF
FF
FF
E7
E7
E7
E7
E7
67
ENDCHAR
STARTCHAR 0049
ENCODING 73
SWIDTH 138 0
DWIDTH 5 0
BBX 3 26 1 0
BITMAP
60
E0
E0
E0
E0
E0
E0
E0
E0
E0
E0
E0
E0
E0
E0
E0
E0
E0
E0
E0
E0
E0
E0
E0
E0
60
ENDCHAR
STARTCHAR 004A
ENCODING 74
SWIDTH 277 0
DWIDTH 10 0
BBX 8 26 1 0
BITMAP
07
07
07
07
07
07
07
07
07
07
07
07
07
07
07
07
07
07
07
67
E7
E7
E7
FF
FF
7F
ENDCHAR
STARTCHAR 004B
ENCODING 75
SWIDTH 277 0
DWIDTH 10 0
BBX 8 26 1 0
BITMAP
67
E7
E7
E7
E7
E7
E7
E7
E7
E7
E7
E7
E7
E7
E7
E7
E7
FF
FE
FF
E7
E7
E7
E7
E7
67
ENDCHAR
STARTCHAR 004C
ENCODING 76
SWIDTH 277 0
DWIDTH 10 0
BBX 8 26 1 0
BITMAP
60
E0
E0
E0
E0
E0
E0
E0
E0
E0
E0
E0
E0
E0
E0
E0
E0
E0
E0
E7
E7
E7
E7
FF
FF
7F
ENDCHAR
STARTCHAR 004D
ENCODING 77
SWIDTH 444 0
DWIDTH 16 0
BBX 13 26 1 0
BITMAP
7FF8
FFF8
FFF8
E738
E738
E738
E738
E738
E738
E738
E738
E738
E738
E738
E738
E738
E738
E738
E738
E738
E738
E738
E738
E738
E738
6738
ENDCHAR
STARTCHAR 004E
ENCODING 78
SWIDTH 277 0
DWIDTH 10 0
BBX 8 26 1 0
BITMAP
7F
FF
FF
E7
E7
E7
E7
E7
E7
E7
E7
E7
E7
E7
E7
E7
E7
E7
E7
E7
E7
E7
E7
E7
E7
67
ENDCHAR
STARTCHAR 004F
ENCODING 79
SWIDTH 277 0
DWIDTH 10 0
BBX 8 26 1 0
BITMAP
7F
FF
FF
E7
E7
E7
E7
E7
E7
E7
E7
E7
E7
E7
E7
E7
E7
E7
E7
E7
E7
E7
E7
FF
FF
7F
ENDCHAR
STARTCHAR 0050
ENCODING 80
SWIDTH 277 0
DWIDTH 10 0
BBX 8 26 1 0
BITMAP
7F
FF
FF
E7
E7
E7
E7
E7
E7
E7
E7
E7
E7
E7
E7
E7
E7
FF
FF
FF
E0
E0
E0
E0
E0
60
ENDCHAR
STARTCHAR 0051
ENCODING 81
SWIDTH 277 0
DWIDTH 10 0
BBX 8 30 1 -4
BITMAP
7F
FF
FF
E7
E7
E7
E7
E7
E7
E7
E7
E7
E7
E7
E7
E7
E7
E7
E7
E7
E7
E7
E7
FF
FF
7F
18
18
18
18
ENDCHAR
STARTCHAR 0052
ENCODING 82
SWIDTH 277 0
DWIDTH 10 0
BBX 8 26 1 0
BITMAP
7F
FF
FF
E7
E7
E7
E7
E7
E7
E7
E7
E7
E7
E7
E7
E7
E7
FF
FE
FF
E7
E7
E7
E7
E7
67
ENDCHAR
STARTCHAR 0053
ENCODING 83
SWIDTH 277 0
DWIDTH 10 0
BBX 8 26 1 0
BITMAP
7F
FF
FF
E0
E0
E0
E0
E0
E0
E0
E0
E0
E0
E0
E0
E0
E0
FF
FF
7F
07
07
07
FF
FF
7F
ENDCHAR
STARTCHAR 0054
ENCODING 84
SWIDTH 250 0
DWIDTH 9 0
BBX 9 26 0 0
BITMAP
FF00
FF80
FF80
1C00
1C00
1C00
1C00
1C00
1C00
1C00
1C00
1C00
1C00
1C00
1C00
1C00
1C00
1C00
1C00
1C00
1C00
1C00
1C00
1C00
1C00
1800
ENDCHAR
STARTCHAR 0055
ENCODING 85
SWIDTH 277 0
DWIDTH 10 0
BBX 8 26 1 0
BITMAP
67
E7
E7
E7
E7
E7
E7
E7
E7
E7
E7
E7
E7
E7
E7
E7
E7
E7
E7
E7
E7
E7
E7
FF
FF
7F
ENDCHAR
STARTCHAR 0056
ENCODING 86
SWIDTH 277 0
DWIDTH 10 0
BBX 8 26 1 0
BITMAP
67
E7
E7
E7
E7
E7
E7
E7
E7
E7
E7
E7
E7
E7
E7
E7
E7
E7
E7
E7
F7
7F
7E
3C
18
08
ENDCHAR
STARTCHAR 0057
ENCODING 87
SWIDTH 444 0
DWIDTH 16 0
BBX 13 26 1 0
BITMAP
6738
E738
E738
E738
E738
E738
E738
E738
E738
E738
E738
E738
E738
E738
E738
E738
E738
E738
E738
E738
E738
E738
E738
FFF8
FFF8
7FF8
ENDCHAR
STARTCHAR 0058
ENCODING 88
SWIDTH 277 0
DWIDTH 10 0
BBX 8 26 1 0
BITMAP
67
E7
E7
E7
E7
E7
E7
E7
E7
E7
E7
E7
E7
E7
E7
E7
E7
FF
3E
FF
E7
E7
E7
E7
E7
67
ENDCHAR
STARTCHAR 0059
ENCODING 89
SWIDTH 277 0
DWIDTH 10 0
BBX 8 26 1 0
BITMAP
67
E7
E7
E7
E7
E7
E7
E7
E7
E7
E7
E7
E7
E7
E7
FF
FF
FF
1C
18
18
18
18
18
18
18
ENDCHAR
STARTCHAR 005A
ENCODING 90
SWIDTH 277 0
DWIDTH 10 0
BBX 8 26 1 0
BITMAP
7F
FF
FF
07
07
07
07
07
07
07
07
07
07
07
07
07
07
7F
FF
FF
E0
E0
E0
FF
FF
7F
ENDCHAR
STARTCHAR 005B
ENCODING 91
SWIDTH 277 0
DWIDTH 10 0
BBX 8 26 1 0
BITMAP
7F
FF
FF
E0
E0
E0
E0
E0
E0
E0
E0
E0
E0
E0
E0
E0
E0
E0
E0
E0
E0
E0
E0
FF
FF
7F
ENDCHAR
STARTCHAR 005C
ENCODING 92
SWIDTH 277 0
DWIDTH 10 0
BBX 8 26 1 0
BITMAP
E0
60
70
70
70
70
30
38
38
38
38
18
1C
1C
1C
1C
0C
0E
0E
0E
0E
06
07
07
07
07
ENDCHAR
STARTCHAR 005D
ENCODING 93
SWIDTH 277 0
DWIDTH 10 0
BBX 8 26 1 0
BITMAP
7F
FF
FF
07
07
07
07
07
07
07
07
07
07
07
07
07
07
07
07
07
07
07
07
FF
FF
7F
ENDCHAR
STARTCHAR 005E
ENCODING 94
SWIDTH 222 0
DWIDTH 8 0
BBX 4 3 2 23
BITMAP
40
60
F0
ENDCHAR
STARTCHAR 005F
ENCODING 95
SWIDTH 277 0
DWIDTH 10 0
BBX 11 2 0 -7
BITMAP
FFE0
FFE0
ENDCHAR
STARTCHAR 0060
ENCODING 96
SWIDTH 166 0
DWIDTH 6 0
BBX 3 3 2 23
BITMAP
C0
60
60
ENDCHAR
STARTCHAR 0061
ENCODING 97
SWIDTH 277 0
DWIDTH 10 0
BBX 8 15 1 -6
BITMAP
7F
FF
FF
07
07
07
7F
FF
FF
E7
E7
E7
FF
FF
7F
ENDCHAR
STARTCHAR 0062
ENCODING 98
SWIDTH 277 0
DWIDTH 10 0
BBX 8 19 1 0
BITMAP
60
E0
E0
E0
E0
E0
E0
E0
E0
E0
FF
FF
FF
E7
E7
E7
FF
FF
7F
ENDCHAR
STARTCHAR 0063
ENCODING 99
SWIDTH 277 0
DWIDTH 10 0
BBX 7 9 1 0
BITMAP
7E
FE
FE
E0
E0
E0
FE
FE
7E
ENDCHAR
STARTCHAR 0064
ENCODING 100
SWIDTH 277 0
DWIDTH 10 0
BBX 8 19 1 0
BITMAP
07
07
07
07
07
07
07
07
07
07
7F
FF
FF
E7
E7
E7
FF
FF
7F
ENDCHAR
STARTCHAR 0065
ENCODING 101
SWIDTH 277 0
DWIDTH 10 0
BBX 8 15 1 -6
BITMAP
7F
FF
FF
E7
E7
E7
FF
FF
FF
E0
E0
E0
FF
FF
7F
ENDCHAR
STARTCHAR 0066
ENCODING 102
SWIDTH 222 0
DWIDTH 8 0
BBX 7 19 1 0
BITMAP
7E
FE
FE
E0
E0
E0
E0
E0
E0
E0
F8
F8
F8
E0
E0
E0
E0
E0
60
ENDCHAR
STARTCHAR 0067
ENCODING 103
SWIDTH 277 0
DWIDTH 10 0
BBX 8 15 1 -6
BITMAP
7F
FF
FF
E7
E7
E7
FF
FF
7F
07
07
07
FF
FF
7F
ENDCHAR
STARTCHAR 0068
ENCODING 104
SWIDTH 277 0
DWIDTH 10 0
BBX 8 19 1 0
BITMAP
60
E0
E0
E0
E0
E0
E0
E0
E0
E0
FF
FF
FF
E7
E7
E7
E7
E7
67
ENDCHAR
STARTCHAR 0069
ENCODING 105
SWIDTH 138 0
DWIDTH 5 0
BBX 3 15 1 0
BITMAP
60
E0
60
00
00
00
60
E0
E0
E0
E0
E0
E0
E0
60
ENDCHAR
STARTCHAR 006A
ENCODING 106
SWIDTH 166 0
DWIDTH 6 0
BBX 5 18 0 -3
BITMAP
38
38
38
00
00
00
38
38
38
38
38
38
38
38
38
F8
F8
F8
ENDCHAR
STARTCHAR 006B
ENCODING 107
SWIDTH 277 0
DWIDTH 10 0
BBX 8 19 1 0
BITMAP
60
E0
E0
E0
E0
E0
E0
E0
E0
E0
E7
E7
E7
FF
FF
FF
E7
E7
67
ENDCHAR
STARTCHAR 006C
ENCODING 108
SWIDTH 138 0
DWIDTH 5 0
BBX 3 19 1 0
BITMAP
E0
E0
E0
E0
E0
E0
E0
E0
E0
E0
E0
E0
E0
E0
E0
E0
E0
E0
E0
ENDCHAR
STARTCHAR 006D
ENCODING 109
SWIDTH 444 0
DWIDTH 16 0
BBX 13 9 1 0
BITMAP
7FF8
FFF8
FFF8
E738
E738
E738
E738
E738
6738
ENDCHAR
STARTCHAR 006E
ENCODING 110
SWIDTH 277 0
DWIDTH 10 0
BBX 8 9 1 0
BITMAP
7F
FF
FF
E7
E7
E7
E7
E7
67
ENDCHAR
STARTCHAR 006F
ENCODING 111
SWIDTH 277 0
DWIDTH 10 0
BBX 8 9 1 0
BITMAP
7F
FF
FF
E7
E7
E7
FF
FF
7F
ENDCHAR
STARTCHAR 0070
ENCODING 112
SWIDTH 277 0
DWIDTH 10 0
BBX 8 15 1 -6
BITMAP
7F
FF
FF
E7
E7
E7
FF
FF
FF
E0
E0
E0
E0
E0
60
ENDCHAR
STARTCHAR 0071
ENCODING 113
SWIDTH 277 0
DWIDTH 10 0
BBX 8 15 1 -6
BITMAP
7F
FF
FF
E7
E7
E7
FF
FF
7F
07
07
07
07
07
07
ENDCHAR
STARTCHAR 0072
ENCODING 114
SWIDTH 250 0
DWIDTH 9 0
BBX 6 9 1 0
BITMAP
7C
FC
FC
E0
E0
E0
E0
E0
60
ENDCHAR
STARTCHAR 0073
ENCODING 115
SWIDTH 277 0
DWIDTH 10 0
BBX 8 15 1 -6
BITMAP
7F
FF
FF
E0
E0
E0
FF
FF
7F
07
07
07
FF
FF
7F
ENDCHAR
STARTCHAR 0074
ENCODING 116
SWIDTH 250 0
DWIDTH 9 0
BBX 6 16 1 0
BITMAP
60
E0
E0
E0
E0
E0
E0
FC
FC
FC
E0
E0
E0
F8
F8
78
ENDCHAR
STARTCHAR 0075
ENCODING 117
SWIDTH 277 0
DWIDTH 10 0
BBX 8 9 1 0
BITMAP
67
E7
E7
E7
E7
E7
FF
FF
7F
ENDCHAR
STARTCHAR 0076
ENCODING 118
SWIDTH 277 0
DWIDTH 10 0
BBX 8 9 1 0
BITMAP
67
E7
E7
F7
7F
7E
3C
18
08
ENDCHAR
STARTCHAR 0077
ENCODING 119
SWIDTH 444 0
DWIDTH 16 0
BBX 13 9 1 -1
BITMAP
6738
E738
E738
F7B8
7FF8
7FF0
3DE0
1CE0
08C0
ENDCHAR
STARTCHAR 0078
ENCODING 120
SWIDTH 277 0
DWIDTH 10 0
BBX 8 9 1 0
BITMAP
67
E7
E7
FF
3E
FF
E7
E7
67
ENDCHAR
STARTCHAR 0079
ENCODING 121
SWIDTH 277 0
DWIDTH 10 0
BBX 8 15 1 -6
BITMAP
67
E7
E7
E7
E7
E7
FF
FF
7F
07
07
07
FF
FF
7F
ENDCHAR
STARTCHAR 007A
ENCODING 122
SWIDTH 277 0
DWIDTH 10 0
BBX 8 15 1 -6
BITMAP
7F
FF
FF
07
07
07
7F
FF
FF
E0
E0
E0
FF
FF
7F
ENDCHAR
STARTCHAR 007B
ENCODING 123
SWIDTH 277 0
DWIDTH 10 0
BBX 8 26 1 0
BITMAP
7F
FF
FF
E0
E0
E0
E0
E0
E0
E0
E0
E0
E0
E0
E0
E0
E0
E0
E0
E0
E0
E0
E0
FF
FF
7F
ENDCHAR
STARTCHAR 007C
ENCODING 124
SWIDTH 138 0
DWIDTH 5 0
BBX 3 29 1 -3
BITMAP
E0
E0
E0
E0
E0
E0
E0
E0
E0
E0
E0
E0
E0
E0
E0
E0
E0
E0
E0
E0
E0
E0
E0
E0
E0
E0
E0
E0
E0
ENDCHAR
STARTCHAR 007D
ENCODING 125
SWIDTH 277 0
DWIDTH 10 0
BBX 8 26 1 0
BITMAP
7F
FF
FF
07
07
07
07
07
07
07
07
07
07
07
07
07
07
07
07
07
07
07
07
FF
FF
7F
ENDCHAR
STARTCHAR 007E
ENCODING 126
SWIDTH 277 0
DWIDTH 10 0
BBX 0 0 0 0
BITMAP
ENDCHAR
STARTCHAR 2010
ENCODING 8208
SWIDTH 277 0
DWIDTH 10 0
BBX 8 3 1 6
BITMAP
FF
FF
FF
ENDCHAR
STARTCHAR 2018
ENCODING 8216
SWIDTH 166 0
DWIDTH 6 0
BBX 4 6 1 19
BITMAP
70
70
70
70
E0
60
ENDCHAR
STARTCHAR 2019
ENCODING 8217
SWIDTH 166 0
DWIDTH 6 0
BBX 4 6 1 21
BITMAP
60
F0
70
70
70
30
ENDCHAR
STARTCHAR 201C
ENCODING 8220
SWIDTH 277 0
DWIDTH 10 0
BBX 8 6 1 20
BITMAP
73
77
F7
E7
E7
E6
ENDCHAR
STARTCHAR 201D
ENCODING 8221
SWIDTH 277 0
DWIDTH 10 0
BBX 9 6 1 20
BITMAP
E600
E700
E700
7700
7380
7300
ENDCHAR
STARTCHAR 2026
ENCODING 8230
SWIDTH 305 0
DWIDTH 11 0
BBX 7 3 2 0
BITMAP
DE
FE
F6
ENDCHAR
ENDFONT
